<svg width="171" height="96" viewBox="0 0 171 96" fill="none" xmlns="http://www.w3.org/2000/svg">
<path d="M0 48.178C0 21.7485 38.2878 0.355957 85.4718 0.355957C132.656 0.355957 171 21.7485 171 48.178C171 74.6074 132.712 96 85.4718 96C38.2315 96 0 74.6074 0 48.178Z" fill="white"/>
<path d="M4.67334 48.1779C4.67334 23.8424 40.8215 4.09109 85.4718 4.09109C130.122 4.09109 166.327 23.8424 166.327 48.1779C166.327 72.5134 130.122 92.2647 85.4718 92.2647C40.8215 92.2647 4.67334 72.5134 4.67334 48.1779ZM85.4718 89.4916C125.618 89.4916 158.106 70.9853 158.106 48.1779C158.106 25.3705 125.618 6.86421 85.4718 6.86421C45.326 6.86421 12.894 25.3705 12.894 48.1779C12.894 70.9853 45.3823 89.4916 85.4718 89.4916Z" fill="#ED1B23"/>
<path d="M52.9276 58.7045L51.4636 38.7267C51.3734 38.3479 51.1562 38.0119 50.8487 37.7749C50.5411 37.5379 50.1619 37.4144 49.7745 37.4251H44.4817C44.207 37.4241 43.938 37.504 43.7079 37.6548C43.4778 37.8057 43.2966 38.0209 43.1867 38.274L38.0629 49.0835L32.9954 38.274C32.8758 38.0164 32.6845 37.7992 32.4447 37.6485C32.2049 37.4979 31.9268 37.4203 31.6441 37.4251H26.3514C25.9562 37.4171 25.5707 37.5486 25.2621 37.7968C24.9534 38.045 24.7412 38.3941 24.6622 38.7833L23.1982 58.6479C23.1982 58.7229 23.2279 58.7949 23.2807 58.848C23.3335 58.901 23.4051 58.9308 23.4798 58.9308H28.6036C29.0471 58.9665 29.4881 58.8358 29.8416 58.5642C30.195 58.2925 30.4359 57.899 30.518 57.4594L31.1936 48.6873L34.572 55.4786C34.8614 55.9263 35.2645 56.2882 35.7396 56.527C36.2147 56.7657 36.7446 56.8727 37.2746 56.8369H38.9075C39.4282 56.8625 39.9465 56.7506 40.4108 56.5123C40.8751 56.274 41.2692 55.9176 41.5539 55.4786L44.9322 48.6873L45.6079 57.4594C45.6776 57.905 45.9154 58.3065 46.2719 58.5805C46.6283 58.8545 47.0761 58.98 47.5222 58.9308H52.6461C52.8713 58.9308 52.9276 58.8176 52.9276 58.7045Z" fill="#ED1B23"/>
<path d="M91.6092 37.4249H81.5305C81.4498 37.4238 81.3714 37.4517 81.3095 37.5036C81.2475 37.5555 81.2061 37.628 81.1926 37.7079V58.6477C81.2061 58.7277 81.2475 58.8001 81.3095 58.852C81.3714 58.9039 81.4498 58.9318 81.5305 58.9307H87.6678C87.9554 58.9497 88.2401 58.8624 88.4682 58.6852C88.6963 58.508 88.8522 58.2532 88.9065 57.9686V51.9696H90.7083C97.9717 51.9696 102.307 49.1399 102.307 44.3294C102.307 39.5189 98.4221 37.4249 91.6092 37.4249ZM90.2578 47.2157H88.9065V42.2354H90.5957C93.3546 42.2354 94.4244 42.9146 94.4244 44.669C94.4244 46.4234 93.1857 47.2157 90.2578 47.2157Z" fill="#ED1B23"/>
<path d="M80.2914 58.5913L71.6766 38.2741C71.5203 38.023 71.3051 37.8144 71.0498 37.6664C70.7946 37.5184 70.5072 37.4355 70.2127 37.4251H64.1317C63.8078 37.4305 63.4922 37.5294 63.2227 37.7101C62.9532 37.8907 62.741 38.1454 62.6114 38.4438L53.9967 58.6479C53.9967 58.7045 53.9404 58.9309 54.2782 58.9309H59.6835C60.1852 58.9116 60.6704 58.7463 61.0803 58.4549C61.4901 58.1635 61.8069 57.7587 61.9921 57.2897L63.1745 54.46H71.1136L72.3523 57.2897C72.5275 57.7542 72.8341 58.1571 73.2343 58.4488C73.6345 58.7404 74.1108 58.908 74.6045 58.9309H80.0098C80.3477 58.9309 80.3477 58.7045 80.2914 58.5913ZM64.6947 49.9324L67.1722 43.3109L69.6496 49.9324H64.6947Z" fill="#ED1B23"/>
<path d="M115.933 45.6312C113.568 45.0653 111.71 44.6125 111.71 43.4806C111.71 42.3488 112.893 42.1224 114.019 42.1224C115.145 42.1224 117.172 42.6883 119.143 43.6504C119.421 43.8503 119.758 43.95 120.1 43.9334C120.404 43.9215 120.701 43.8446 120.973 43.708C121.245 43.5714 121.485 43.3781 121.676 43.1411L124.154 40.8207C124.2 40.7695 124.235 40.7093 124.257 40.644C124.279 40.5787 124.288 40.5095 124.283 40.4407C124.277 40.3719 124.258 40.3049 124.226 40.2438C124.195 40.1826 124.151 40.1286 124.097 40.085C121.119 38.0742 117.607 37.0095 114.019 37.0289C107.769 37.0289 103.715 39.7454 103.715 43.8768C103.715 48.0082 109.008 49.8758 111.823 50.4983C114.638 51.1209 115.764 51.4604 115.764 52.4791C115.764 53.4978 115.539 54.0638 113.231 54.0638C111.077 53.9372 108.953 53.4988 106.924 52.7621C106.624 52.6216 106.298 52.5446 105.967 52.5357C105.659 52.5122 105.352 52.5871 105.089 52.7498C104.826 52.9124 104.621 53.1544 104.503 53.4412L102.814 56.4973C102.814 56.6671 102.701 57.0067 102.983 57.1764C106.208 58.5547 109.67 59.2853 113.174 59.327C119.818 59.327 123.985 56.6105 123.985 52.3093C123.985 48.0082 119.987 46.6499 115.933 45.6312Z" fill="#ED1B23"/>
<path d="M149.829 58.5913L141.158 38.2741C141.002 38.023 140.786 37.8144 140.531 37.6664C140.276 37.5184 139.988 37.4355 139.694 37.4251H133.613C133.292 37.4433 132.982 37.5473 132.715 37.7264C132.448 37.9055 132.233 38.1532 132.093 38.4438L123.478 58.6479C123.478 58.7045 123.478 58.9309 123.816 58.9309H129.221C129.715 58.908 130.191 58.7404 130.591 58.4488C130.992 58.1571 131.298 57.7542 131.473 57.2897L132.656 54.46H140.651L141.834 57.2897C142.019 57.7587 142.335 58.1635 142.745 58.4549C143.155 58.7463 143.64 58.9116 144.142 58.9309H149.547C149.885 58.9309 149.829 58.7045 149.829 58.5913ZM134.176 49.9324L136.71 43.3109L139.131 49.9324H134.176Z" fill="#ED1B23"/>
</svg>
